<svg version="1.1" id="Layer_1" xmlns="http://www.w3.org/2000/svg" xmlns:xlink="http://www.w3.org/1999/xlink" x="0px" y="0px"
	 width="100%" viewBox="0 0 301 167" enable-background="new 0 0 301 167" xml:space="preserve">
<path fill="#FEFEFE" opacity="1.000000" stroke="none" 
	d="
M178.000000,168.000000 
	C118.666672,168.000000 59.833347,168.000000 1.000016,168.000000 
	C1.000010,112.333344 1.000010,56.666695 1.000005,1.000031 
	C101.333305,1.000021 201.666611,1.000021 301.999939,1.000010 
	C301.999939,56.666637 301.999939,112.333275 301.999969,167.999954 
	C260.833344,168.000000 219.666672,168.000000 178.000000,168.000000 
M283.934265,118.143478 
	C287.022522,118.146271 290.121429,118.287361 293.191193,118.050560 
	C293.920990,117.994270 294.553192,116.673180 295.523773,115.128914 
	C295.426758,96.074051 295.329742,77.019196 295.488373,57.401646 
	C294.995544,56.964115 294.502716,56.526585 293.111633,55.927357 
	C290.071198,55.981583 287.030731,56.035809 283.527832,55.958050 
	C283.527832,55.958050 283.064880,56.088413 282.264404,56.418293 
	C282.180054,76.279526 282.085907,96.140739 282.054352,116.002045 
	C282.053314,116.659691 282.686768,117.318352 283.934265,118.143478 
M269.832520,56.341484 
	C269.230438,56.260296 268.628387,56.179108 267.100464,55.920059 
	C256.396088,55.979107 245.691711,56.038151 234.142303,56.345367 
	C234.142303,76.900612 234.142303,97.455864 234.142303,118.705482 
	C238.708649,118.101509 242.767914,117.564606 246.984268,116.098648 
	C246.984268,108.702171 246.984268,101.305695 246.984268,93.237846 
	C253.709991,93.237846 259.819061,93.237846 266.698517,93.457260 
	C267.143311,92.970345 267.588074,92.483429 268.237732,91.139893 
	C268.164001,89.094131 268.090240,87.048370 268.076202,84.412491 
	C267.726868,84.317978 267.377533,84.223465 266.098328,83.978241 
	C259.853119,83.978241 253.607925,83.978241 247.223114,83.978241 
	C247.223114,78.000885 247.223114,72.600250 247.223114,66.748215 
	C254.813065,66.748215 262.196045,66.748215 269.831024,66.748215 
	C269.831024,63.196934 269.831024,60.089550 269.832520,56.341484 
M158.734024,41.927143 
	C152.485596,32.182293 135.178574,35.039219 130.644608,44.430344 
	C120.041519,66.392342 108.543922,87.921997 97.895638,109.863113 
	C96.180855,113.396469 95.986450,118.357368 96.823853,122.288895 
	C98.334435,129.380981 103.927345,133.088074 110.912392,133.726578 
	C117.726166,134.349411 123.508270,131.535568 126.700027,125.333305 
	C138.020996,103.334297 149.103378,81.212387 160.245285,59.121468 
	C163.123032,53.415760 162.481125,47.877041 158.734024,41.927143 
M78.652145,60.098789 
	C70.237877,76.669678 61.705997,93.182320 53.457935,109.835533 
	C49.204845,118.422722 52.424755,127.785782 60.588245,132.006989 
	C68.634834,136.167740 78.488342,133.188400 82.775040,124.870346 
	C92.184113,106.612625 101.476379,88.292252 110.577713,69.879509 
	C114.524750,61.894329 111.227798,52.555576 103.783783,48.311726 
	C98.293182,45.181526 84.542412,46.973377 81.448334,54.553802 
	C80.762054,56.235184 79.788414,57.799274 78.652145,60.098789 
M25.194277,133.833237 
	C30.905512,132.950974 35.636921,130.540161 38.371189,125.169708 
	C45.896343,110.389343 53.566868,95.678696 60.804058,80.758171 
	C63.654831,74.880882 63.206234,68.725861 58.870335,63.423393 
	C51.133533,53.961895 36.944290,55.562958 31.079908,66.739250 
	C23.841156,80.534821 16.901522,94.488258 9.908476,108.411568 
	C3.492033,121.186844 9.933174,132.471664 25.194277,133.833237 
M189.041214,95.116722 
	C189.049423,89.987526 188.472458,84.775024 189.188309,79.746567 
	C190.654648,69.446205 198.895355,64.032547 208.671219,66.482132 
	C211.985046,67.312477 215.172882,68.645638 218.539642,69.790283 
	C219.119751,68.337013 219.609314,67.113319 220.096848,65.888832 
	C222.773880,59.165398 222.651718,58.715874 215.543182,56.792473 
	C209.353958,55.117817 203.410202,55.145802 196.760895,56.353149 
	C187.208054,58.087696 181.735153,63.229374 177.969574,71.030693 
	C173.833588,79.599380 173.996292,88.771866 175.874542,97.925949 
	C178.339508,109.939522 185.630859,117.213173 197.596466,118.719788 
	C202.300995,119.312141 207.252441,118.863922 211.980103,118.151146 
	C220.538773,116.860794 221.052460,115.827042 219.560471,106.374390 
	C216.955444,106.682220 214.283234,106.794708 211.701569,107.337646 
	C199.400009,109.924698 191.883072,106.814812 189.041214,95.116722 
z"/>
<path fill="#132E57" opacity="1.000000" stroke="none" 
	d="
M158.949310,42.235405 
	C162.481125,47.877041 163.123032,53.415760 160.245285,59.121468 
	C149.103378,81.212387 138.020996,103.334297 126.700027,125.333305 
	C123.508270,131.535568 117.726166,134.349411 110.912392,133.726578 
	C103.927345,133.088074 98.334435,129.380981 96.823853,122.288895 
	C95.986450,118.357368 96.180855,113.396469 97.895638,109.863113 
	C108.543922,87.921997 120.041519,66.392342 130.644608,44.430344 
	C135.178574,35.039219 152.485596,32.182293 158.949310,42.235405 
z"/>
<path fill="#142F58" opacity="1.000000" stroke="none" 
	d="
M78.799622,59.758080 
	C79.788414,57.799274 80.762054,56.235184 81.448334,54.553802 
	C84.542412,46.973377 98.293182,45.181526 103.783783,48.311726 
	C111.227798,52.555576 114.524750,61.894329 110.577713,69.879509 
	C101.476379,88.292252 92.184113,106.612625 82.775040,124.870346 
	C78.488342,133.188400 68.634834,136.167740 60.588245,132.006989 
	C52.424755,127.785782 49.204845,118.422722 53.457935,109.835533 
	C61.705997,93.182320 70.237877,76.669678 78.799622,59.758080 
z"/>
<path fill="#142E57" opacity="1.000000" stroke="none" 
	d="
M24.785650,133.867065 
	C9.933174,132.471664 3.492033,121.186844 9.908476,108.411568 
	C16.901522,94.488258 23.841156,80.534821 31.079908,66.739250 
	C36.944290,55.562958 51.133533,53.961895 58.870335,63.423393 
	C63.206234,68.725861 63.654831,74.880882 60.804058,80.758171 
	C53.566868,95.678696 45.896343,110.389343 38.371189,125.169708 
	C35.636921,130.540161 30.905512,132.950974 24.785650,133.867065 
z"/>
<path fill="#153058" opacity="1.000000" stroke="none" 
	d="
M189.092133,95.527130 
	C191.883072,106.814812 199.400009,109.924698 211.701569,107.337646 
	C214.283234,106.794708 216.955444,106.682220 219.560471,106.374390 
	C221.052460,115.827042 220.538773,116.860794 211.980103,118.151146 
	C207.252441,118.863922 202.300995,119.312141 197.596466,118.719788 
	C185.630859,117.213173 178.339508,109.939522 175.874542,97.925949 
	C173.996292,88.771866 173.833588,79.599380 177.969574,71.030693 
	C181.735153,63.229374 187.208054,58.087696 196.760895,56.353149 
	C203.410202,55.145802 209.353958,55.117817 215.543182,56.792473 
	C222.651718,58.715874 222.773880,59.165398 220.096848,65.888832 
	C219.609314,67.113319 219.119751,68.337013 218.539642,69.790283 
	C215.172882,68.645638 211.985046,67.312477 208.671219,66.482132 
	C198.895355,64.032547 190.654648,69.446205 189.188309,79.746567 
	C188.472458,84.775024 189.049423,89.987526 189.092133,95.527130 
z"/>
<path fill="#173159" opacity="1.000000" stroke="none" 
	d="
M234.987335,56.097198 
	C245.691711,56.038151 256.396088,55.979107 267.709778,56.233551 
	C268.823059,56.692089 269.327057,56.837128 269.831024,56.982166 
	C269.831024,60.089550 269.831024,63.196934 269.831024,66.748215 
	C262.196045,66.748215 254.813065,66.748215 247.223114,66.748215 
	C247.223114,72.600250 247.223114,78.000885 247.223114,83.978241 
	C253.607925,83.978241 259.853119,83.978241 266.672363,84.254486 
	C267.453613,84.768867 267.710297,84.926155 268.016510,85.002609 
	C268.090240,87.048370 268.164001,89.094131 267.805847,91.589630 
	C266.892029,92.438858 266.410065,92.838356 265.928101,93.237846 
	C259.819061,93.237846 253.709991,93.237846 246.984268,93.237846 
	C246.984268,101.305695 246.984268,108.702171 246.453796,116.555550 
	C244.426117,117.008034 242.928925,117.001297 241.431732,116.999596 
	C235.011795,116.992287 235.009613,116.992828 235.006897,110.495758 
	C234.999329,92.362907 234.993713,74.230049 234.987335,56.097198 
z"/>
<path fill="#132E57" opacity="1.000000" stroke="none" 
	d="
M283.990295,56.090034 
	C287.030731,56.035809 290.071198,55.981583 293.567261,56.258255 
	C294.426178,57.047546 294.829437,57.505943 295.232727,57.964336 
	C295.329742,77.019196 295.426758,96.074051 294.977295,115.687317 
	C293.646698,116.484703 292.875671,116.867714 292.076477,116.940369 
	C284.057526,117.669365 283.999969,117.604507 283.998718,109.719086 
	C283.995972,91.842735 283.993103,73.966385 283.990295,56.090034 
z"/>
<path fill="#001048" opacity="1.000000" stroke="none" 
	d="
M234.564819,56.221283 
	C234.993713,74.230049 234.999329,92.362907 235.006897,110.495758 
	C235.009613,116.992828 235.011795,116.992287 241.431732,116.999596 
	C242.928925,117.001297 244.426117,117.008034 246.375244,117.020073 
	C242.767914,117.564606 238.708649,118.101509 234.142303,118.705482 
	C234.142303,97.455864 234.142303,76.900612 234.564819,56.221283 
z"/>
<path fill="#002150" opacity="1.000000" stroke="none" 
	d="
M283.759064,56.024040 
	C283.993103,73.966385 283.995972,91.842735 283.998718,109.719086 
	C283.999969,117.604507 284.057526,117.669365 292.076477,116.940369 
	C292.875671,116.867714 293.646698,116.484703 294.830536,116.089790 
	C294.553192,116.673180 293.920990,117.994270 293.191193,118.050560 
	C290.121429,118.287361 287.022522,118.146271 283.461853,117.593094 
	C283.014557,96.724609 283.039734,76.406509 283.064880,56.088413 
	C283.064880,56.088413 283.527832,55.958050 283.759064,56.024040 
z"/>
<path fill="#6A7489" opacity="1.000000" stroke="none" 
	d="
M282.664673,56.253353 
	C283.039734,76.406509 283.014557,96.724609 283.006927,117.509628 
	C282.686768,117.318352 282.053314,116.659691 282.054352,116.002045 
	C282.085907,96.140739 282.180054,76.279526 282.664673,56.253353 
z"/>
<path fill="#002150" opacity="1.000000" stroke="none" 
	d="
M295.360535,57.682991 
	C294.829437,57.505943 294.426178,57.047546 294.016388,56.339104 
	C294.502716,56.526585 294.995544,56.964115 295.360535,57.682991 
z"/>
<path fill="#001B4D" opacity="1.000000" stroke="none" 
	d="
M269.831787,56.661827 
	C269.327057,56.837128 268.823059,56.692089 268.172699,56.322479 
	C268.628387,56.179108 269.230438,56.260296 269.831787,56.661827 
z"/>
<path fill="#001E4F" opacity="1.000000" stroke="none" 
	d="
M266.313293,93.347549 
	C266.410065,92.838356 266.892029,92.438858 267.703430,92.017944 
	C267.588074,92.483429 267.143311,92.970345 266.313293,93.347549 
z"/>
<path fill="#001E4F" opacity="1.000000" stroke="none" 
	d="
M268.046356,84.707550 
	C267.710297,84.926155 267.453613,84.768867 267.137329,84.329842 
	C267.377533,84.223465 267.726868,84.317978 268.046356,84.707550 
z"/>
</svg>